<svg width="17" height="22" viewBox="0 0 17 22" fill="none" xmlns="http://www.w3.org/2000/svg">
<path d="M4.83594 3.66732V14.6673C4.83594 15.1535 5.02909 15.6199 5.37291 15.9637C5.71673 16.3075 6.18304 16.5007 6.66927 16.5007H14.0026C14.4888 16.5007 14.9551 16.3075 15.299 15.9637C15.6428 15.6199 15.8359 15.1535 15.8359 14.6673V6.63915C15.8359 6.39491 15.7871 6.15315 15.6923 5.92804C15.5975 5.70294 15.4588 5.49904 15.2841 5.32832L12.2454 2.35648C11.9029 2.02159 11.4429 1.83404 10.9639 1.83398H6.66927C6.18304 1.83398 5.71673 2.02714 5.37291 2.37096C5.02909 2.71477 4.83594 3.18109 4.83594 3.66732V3.66732Z" stroke="#6D6D6D" stroke-width="2" stroke-linecap="round" stroke-linejoin="round"/>
<path d="M12.168 16.5013V18.3346C12.168 18.8209 11.9748 19.2872 11.631 19.631C11.2872 19.9748 10.8209 20.168 10.3346 20.168H3.0013C2.51507 20.168 2.04876 19.9748 1.70494 19.631C1.36112 19.2872 1.16797 18.8209 1.16797 18.3346V8.2513C1.16797 7.76507 1.36112 7.29876 1.70494 6.95494C2.04876 6.61112 2.51507 6.41797 3.0013 6.41797H4.83464" stroke="#6D6D6D" stroke-width="2" stroke-linecap="round" stroke-linejoin="round"/>
</svg>
