<svg width="23" height="22" viewBox="0 0 23 22" fill="none" xmlns="http://www.w3.org/2000/svg">
<path d="M7.83594 3.66732V14.6673C7.83594 15.1535 8.02909 15.6199 8.37291 15.9637C8.71673 16.3075 9.18304 16.5007 9.66927 16.5007H17.0026C17.4888 16.5007 17.9551 16.3075 18.299 15.9637C18.6428 15.6199 18.8359 15.1535 18.8359 14.6673V6.63915C18.8359 6.39491 18.7871 6.15315 18.6923 5.92804C18.5975 5.70294 18.4588 5.49904 18.2841 5.32832L15.2454 2.35648C14.9029 2.02159 14.4429 1.83404 13.9639 1.83398H9.66927C9.18304 1.83398 8.71673 2.02714 8.37291 2.37096C8.02909 2.71477 7.83594 3.18109 7.83594 3.66732V3.66732Z" stroke="#6D6D6D" stroke-width="2" stroke-linecap="round" stroke-linejoin="round"/>
<path d="M15.168 16.5013V18.3346C15.168 18.8209 14.9748 19.2872 14.631 19.631C14.2872 19.9748 13.8209 20.168 13.3346 20.168H6.0013C5.51507 20.168 5.04876 19.9748 4.70494 19.631C4.36112 19.2872 4.16797 18.8209 4.16797 18.3346V8.2513C4.16797 7.76507 4.36112 7.29876 4.70494 6.95494C5.04876 6.61112 5.51507 6.41797 6.0013 6.41797H7.83464" stroke="#6D6D6D" stroke-width="2" stroke-linecap="round" stroke-linejoin="round"/>
</svg>
