<svg width="150" height="82" viewBox="0 0 150 82" fill="none" xmlns="http://www.w3.org/2000/svg">
<path d="M35.6264 82C28.7386 82 22.603 80.6449 17.2194 77.9348C11.8359 75.1473 7.6003 71.3532 4.51268 66.5524C1.50423 61.7517 0 56.254 0 50.0595V0H20.4258V49.0142C20.4258 51.9566 21.0987 54.6279 22.4446 57.0283C23.7905 59.3513 25.6114 61.2096 27.9073 62.6034C30.2033 63.9197 32.7763 64.5779 35.6264 64.5779C38.6348 64.5779 41.287 63.9197 43.5829 62.6034C45.958 61.2096 47.8581 59.3513 49.2832 57.0283C50.7082 54.6279 51.4207 51.9566 51.4207 49.0142V0H71.134V50.0595C71.134 56.254 69.5902 61.7517 66.5026 66.5524C63.4941 71.3532 59.2981 75.1473 53.9146 77.9348C48.531 80.6449 42.435 82 35.6264 82Z" fill="#FF2063"/>
<path d="M82.748 82V17.5714H58.7629V0H128.351V17.5714H102.989V82H82.748Z" fill="#FF2063"/>
<path d="M0 0H150V18.566H0V0Z" fill="#FF2063"/>
<path d="M150 0V16.7514L136.101 16.7514V65.2486H150V82H102.062V65.2486H116.078V16.7514H102.062L102.062 0H150Z" fill="#FF2063"/>
</svg>
